HIERARCHY
ROOT SpineBase
{
  OFFSET 0.000000 0.000000 0.000000
  CHANNELS 6 Xposition Yposition Zposition Zrotation Xrotation Yrotation
  JOINT SpineMid
  {
    OFFSET 0.000000 31.184070 0.000000
    CHANNELS 3 Zrotation Xrotation Yrotation
    JOINT SpineShoulder
    {
      OFFSET 0.204420 23.162077 -0.964036
      CHANNELS 3 Zrotation Xrotation Yrotation
      JOINT Neck
      {
        OFFSET 0.074424 7.664089 -0.660099
        CHANNELS 3 Zrotation Xrotation Yrotation
        JOINT Head
        {
          OFFSET -3.893747 12.818167 2.701031
          CHANNELS 3 Zrotation Xrotation Yrotation
          End Site
          {
            OFFSET 0 0 0
          }
        }
      }
      JOINT ShoulderLeft
      {
        OFFSET -16.411479 -4.425278 9.669890
        CHANNELS 3 Zrotation Xrotation Yrotation
        JOINT ElbowLeft
        {
          OFFSET -3.641358 -28.882249 3.599636
          CHANNELS 3 Zrotation Xrotation Yrotation
          JOINT WristLeft
          {
            OFFSET -0.396272 -22.722899 -1.477064
            CHANNELS 3 Zrotation Xrotation Yrotation
            JOINT HandLeft
            {
              OFFSET -0.340211 -7.981031 1.519338
              CHANNELS 3 Zrotation Xrotation Yrotation
              JOINT HandTipLeft
              {
                OFFSET 1.331031 -7.413587 0.258585
                CHANNELS 3 Zrotation Xrotation Yrotation
                End Site
                {
                  OFFSET 0 0 0
                }
              }
              JOINT ThumbLeft
              {
                OFFSET 2.266602 1.267915 -1.892698
                CHANNELS 3 Zrotation Xrotation Yrotation
                End Site
                {
                  OFFSET 0 0 0
                }
              }
            }
          }
        }
      }
      JOINT ShoulderRight
      {
        OFFSET 12.287578 -4.251775 -8.400132
        CHANNELS 3 Zrotation Xrotation Yrotation
        JOINT ElbowRight
        {
          OFFSET 5.988983 -23.096081 -4.663883
          CHANNELS 3 Zrotation Xrotation Yrotation
          JOINT WristRight
          {
            OFFSET -16.524426 -11.120838 -10.174633
            CHANNELS 3 Zrotation Xrotation Yrotation
            JOINT HandRight
            {
              OFFSET -3.492832 1.585107 -1.280631
              CHANNELS 3 Zrotation Xrotation Yrotation
              JOINT HandTipRight
              {
                OFFSET -6.402822 0.335263 -5.506717
                CHANNELS 3 Zrotation Xrotation Yrotation
                End Site
                {
                  OFFSET 0 0 0
                }
              }
              JOINT ThumbRight
              {
                OFFSET -3.543418 2.288144 -2.728996
                CHANNELS 3 Zrotation Xrotation Yrotation
                End Site
                {
                  OFFSET 0 0 0
                }
              }
            }
          }
        }
      }
    }
  }
  JOINT HipLeft
  {
    OFFSET -6.019783 0.060215 -0.287943
    CHANNELS 3 Zrotation Xrotation Yrotation
    JOINT KneeLeft
    {
      OFFSET 0.788861 -37.485461 4.487109
      CHANNELS 3 Zrotation Xrotation Yrotation
      JOINT AnkleLeft
      {
        OFFSET 7.776557 -37.982904 9.171614
        CHANNELS 3 Zrotation Xrotation Yrotation
        JOINT FootLeft
        {
          OFFSET -1.191474 -5.866917 -5.329996
          CHANNELS 3 Zrotation Xrotation Yrotation
          End Site
          {
            OFFSET 0 0 0
          }
        }
      }
    }
  }
  JOINT HipRight
  {
    OFFSET 6.540452 1.737909 -6.777154
    CHANNELS 3 Zrotation Xrotation Yrotation
    JOINT KneeRight
    {
      OFFSET 5.157049 -35.757716 -1.837898
      CHANNELS 3 Zrotation Xrotation Yrotation
      JOINT AnkleRight
      {
        OFFSET 4.888210 -38.591726 8.792682
        CHANNELS 3 Zrotation Xrotation Yrotation
        JOINT FootRight
        {
          OFFSET -4.612776 -2.198502 -10.676893
          CHANNELS 3 Zrotation Xrotation Yrotation
          End Site
          {
            OFFSET 0 0 0
          }
        }
      }
    }
  }
}
MOTION
Frames: 14
Frame Time: 0.033333
-23.860516 82.409391 338.666364 -0.000000 0.000000 27.323013 -0.000000 0.000000 -27.323013 -0.000000 0.000000 0.000000 -0.000000 0.000000 0.000000 0.000000 0.000000 0.000000 -0.000000 0.000000 0.000000 -0.000000 0.000000 0.000000 -0.000000 0.000000 0.000000 -0.000000 0.000000 0.000000 0.000000 0.000000 0.000000 0.000000 0.000000 0.000000 -0.000000 0.000000 0.000000 -0.000000 0.000000 0.000000 -0.000000 0.000000 0.000000 -0.000000 0.000000 0.000000 0.000000 0.000000 0.000000 0.000000 0.000000 0.000000 -0.000000 0.000000 -27.323013 -0.000000 0.000000 0.000000 -0.000000 0.000000 0.000000 0.000000 0.000000 0.000000 -0.000000 0.000000 -27.323013 -0.000000 0.000000 0.000000 -0.000000 0.000000 0.000000 0.000000 0.000000 0.000000
-23.901531 82.404068 338.798677 -0.148296 -0.304560 27.261255 0.271329 0.202803 -27.262129 -0.000000 0.000000 0.000000 -0.000000 0.000000 0.000000 0.000000 0.000000 0.000000 -0.000000 0.000000 0.000000 0.897605 -0.252442 -0.051983 -0.453850 3.231776 0.000166 -0.017205 -4.772621 -0.247121 0.000000 0.000000 0.000000 0.000000 0.000000 0.000000 -0.000000 0.000000 0.000000 -0.000000 0.000000 0.000000 2.782047 -0.950020 0.167629 -2.339372 0.704223 2.061993 0.000000 0.000000 0.000000 0.000000 0.000000 0.000000 0.271329 0.202803 -27.262129 -0.000000 0.000000 0.000000 0.040964 -1.560480 0.283802 0.000000 0.000000 0.000000 0.271329 0.202803 -27.262129 -0.000000 0.000000 0.000000 1.630609 -3.347693 -1.021305 0.000000 0.000000 0.000000
-23.957456 82.392475 338.949064 -0.302655 -0.613493 27.207422 0.549677 0.407222 -27.210996 -0.000000 0.000000 0.000000 0.187287 -0.864128 -0.300880 0.000000 0.000000 0.000000 -0.000000 0.000000 0.000000 1.568842 -0.325736 -0.091885 -0.749318 6.537454 -0.057000 -0.091476 -9.452672 -0.392357 0.000000 0.000000 0.000000 0.000000 0.000000 0.000000 -0.000000 0.000000 0.000000 -0.000000 0.000000 0.000000 5.081122 -1.704356 0.385257 -4.220585 1.250949 3.789657 0.000000 0.000000 0.000000 0.000000 0.000000 0.000000 0.549677 0.407222 -27.210996 -0.000000 0.000000 0.000000 0.092438 -2.825526 0.503598 0.000000 0.000000 0.000000 0.549677 0.407222 -27.210996 -0.000000 0.000000 0.000000 3.310334 -7.001780 -1.820402 0.000000 0.000000 0.000000
-24.028289 82.374611 339.117524 -0.463021 -0.926663 27.161166 0.835019 0.613060 -27.169378 -0.000000 0.000000 0.000000 0.264793 -1.202893 -0.419062 0.000000 0.000000 0.000000 -0.000000 0.000000 0.000000 2.057733 -0.239508 -0.125352 -0.999905 9.636960 -0.158166 -0.146966 -13.717875 -0.448321 0.000000 0.000000 0.000000 0.000000 0.000000 0.000000 -0.000000 0.000000 0.000000 -0.689690 0.641414 -0.313794 7.684582 -2.884487 1.034716 -5.741720 1.669143 5.078012 0.000000 0.000000 0.000000 0.000000 0.000000 0.000000 0.835019 0.613060 -27.169378 -0.000000 0.000000 0.000000 0.150095 -3.772307 0.654709 0.000000 0.000000 0.000000 1.499310 1.189918 -27.078976 -0.328905 -0.815944 -0.103196 5.014888 -10.862138 -2.316299 0.000000 0.000000 0.000000
-24.114032 82.350476 339.304057 -0.629330 -1.243927 27.122113 1.127317 0.820117 -27.137013 -0.000000 0.000000 0.000000 0.332061 -1.479370 -0.516041 0.000000 0.000000 0.000000 -0.000000 0.000000 0.000000 2.391954 -0.001201 -0.155518 -1.304659 12.120504 -0.274243 -0.113376 -17.135756 -0.427086 0.000000 0.000000 0.000000 0.000000 0.000000 0.000000 -0.000000 0.000000 0.000000 -0.808019 0.761679 -0.380834 9.360148 -3.419497 1.417458 -6.979504 1.979308 5.846044 0.000000 0.000000 0.000000 0.000000 0.000000 0.000000 1.692544 1.473499 -27.106113 -0.205439 -0.839081 -0.043718 0.210413 -4.384386 0.733501 0.000000 0.000000 0.000000 2.063400 1.575099 -27.023347 -0.490932 -1.097665 -0.137935 6.718716 -14.784392 -2.434019 0.000000 0.000000 0.000000
-24.214683 82.320070 339.508664 -0.801518 -1.565139 27.089864 1.426526 1.028189 -27.113613 -0.000000 0.000000 0.000000 0.389406 -1.693586 -0.592022 0.000000 0.000000 0.000000 -0.000000 0.000000 0.000000 2.587454 0.391920 -0.183939 -1.722106 13.574975 -0.372742 0.041464 -19.286944 -0.344049 0.000000 0.000000 0.000000 0.000000 0.000000 0.000000 -0.000000 0.000000 0.000000 -0.870917 0.834950 -0.429774 10.674080 -3.776541 1.799644 -7.990430 2.195015 6.040184 0.000000 0.000000 0.000000 0.000000 0.000000 0.000000 2.213622 1.872908 -27.072368 -0.316432 -1.110201 -0.064237 0.270967 -4.651525 0.737562 0.000000 0.000000 0.000000 2.659420 1.953684 -26.980772 -0.678991 -1.383679 -0.173121 8.394853 -18.593316 -2.116841 0.000000 0.000000 0.000000
-24.430514 82.264559 339.854476 -1.134456 -2.064450 27.022286 1.342793 0.732058 -27.058558 -0.115441 0.024626 -0.020625 0.895331 -1.095247 -0.653086 0.000000 0.000000 0.000000 0.990360 1.421369 0.005671 1.906838 0.348195 -0.171628 -2.040704 13.381723 -0.425672 0.936981 -19.390943 0.009897 0.000000 0.000000 0.000000 0.000000 0.000000 0.000000 0.386037 0.777550 0.023093 -0.861056 0.876947 -0.499600 11.538534 -3.547894 2.896449 -8.929031 2.138466 4.237057 0.000000 0.000000 0.000000 0.000000 0.000000 0.000000 3.186326 2.454802 -27.002686 -0.588722 -1.569593 -0.111399 0.491928 -4.723242 0.554383 0.000000 0.000000 0.000000 3.758518 2.520042 -26.908623 -1.072422 -1.885118 -0.234937 9.867399 -21.812333 -1.651847 0.000000 0.000000 0.000000
-24.617563 82.206082 340.162843 -1.401253 -2.486697 26.971478 1.533967 0.821809 -27.024588 -0.097108 0.073987 -0.025010 1.079995 -0.974070 -0.688425 0.000000 0.000000 0.000000 1.117291 1.874854 -0.021576 1.694533 1.208768 -0.161997 -1.543544 12.124974 -0.393101 -0.745371 -17.766111 -0.268487 0.000000 0.000000 0.000000 0.000000 0.000000 0.000000 0.503459 0.984496 0.029500 -0.865749 0.900323 -0.529162 12.366554 -3.426959 3.687572 -9.654325 1.987486 2.009113 0.000000 0.000000 0.000000 0.000000 0.000000 0.000000 4.021126 2.983860 -26.959205 -0.828824 -1.995634 -0.155351 0.567440 -3.769511 0.277537 0.000000 0.000000 0.000000 4.678602 3.000825 -26.865862 -1.411641 -2.305392 -0.289190 11.475551 -25.022805 0.035293 0.000000 0.000000 0.000000
-24.810224 82.155235 340.449478 -1.640738 -2.846690 26.907591 1.660131 0.871173 -26.977505 -0.046407 0.108342 -0.027428 1.197692 -0.695898 -0.675251 0.000000 0.000000 0.000000 1.201608 2.302355 -0.047605 1.604649 1.976803 -0.156757 -2.651336 9.765217 -0.478939 0.842087 -16.070722 0.201752 0.000000 0.000000 0.000000 0.000000 0.000000 0.000000 0.600139 1.210127 0.033632 -0.742272 0.774408 -0.459303 12.920503 -2.729664 5.018313 -10.383781 1.597392 -1.347891 0.000000 0.000000 0.000000 0.000000 0.000000 0.000000 4.817275 3.449656 -26.904888 -1.093026 -2.408353 -0.204035 0.476166 -2.757228 0.142152 0.000000 0.000000 0.000000 5.525703 3.384643 -26.821412 -1.759119 -2.666688 -0.336335 12.317575 -26.510467 1.353422 0.000000 0.000000 0.000000
-24.843705 82.130390 340.580999 -1.642417 -2.993579 26.954725 1.582990 0.857264 -27.027387 -0.006854 0.115504 -0.027199 1.142627 -0.452805 -0.643454 0.000000 0.000000 0.000000 1.164779 2.586336 -0.068940 1.539453 2.683940 -0.152268 -4.136585 7.072102 -0.682472 1.134507 -13.402676 0.373135 0.000000 0.000000 0.000000 0.000000 0.000000 0.000000 0.603419 0.584558 -0.173092 0.019849 0.811895 0.206081 12.631206 -1.794216 5.162420 -10.783130 1.339180 -3.069362 0.000000 0.000000 0.000000 0.000000 0.000000 0.000000 5.007313 3.715976 -26.962685 -1.135142 -2.587065 -0.215431 0.282507 -1.478135 0.047777 0.000000 0.000000 0.000000 5.678378 3.540076 -26.879536 -1.817932 -2.730167 -0.344913 11.653626 -25.232346 1.195612 0.000000 0.000000 0.000000
-24.681737 82.138005 340.535270 -1.378578 -2.904332 27.136488 1.311982 0.777432 -27.194688 0.008923 0.106412 -0.023573 0.994921 -0.267731 -0.611984 0.000000 0.000000 0.000000 1.014467 2.752191 -0.090997 1.588930 3.419520 -0.158265 -5.507793 4.404284 -0.938083 1.896476 -10.646747 0.699190 0.000000 0.000000 0.000000 0.000000 0.000000 0.000000 0.674373 0.382101 -0.292345 -0.124469 1.124987 0.317542 13.905058 -2.606294 4.553168 -12.330033 2.390547 -2.566542 0.000000 0.000000 0.000000 0.000000 0.000000 0.000000 4.491233 3.771274 -27.152362 -0.896368 -2.499167 -0.179016 -0.000000 0.000000 0.000000 0.000000 0.000000 0.000000 5.038957 3.488957 -27.050375 -1.517545 -2.493995 -0.315732 13.735822 -29.175219 1.673994 0.000000 0.000000 0.000000
-24.386632 82.157447 340.357298 -0.940548 -2.650285 27.340644 0.915669 0.668160 -27.374740 -0.033071 0.032973 -0.020394 0.879080 -0.228713 -0.631806 0.000000 0.000000 0.000000 0.975076 2.957201 -0.109675 1.533062 3.778578 -0.163734 -6.216264 1.976291 -1.096342 3.635747 -8.012232 1.087102 0.000000 0.000000 0.000000 0.000000 0.000000 0.000000 0.966926 -0.324162 -0.589755 0.717791 1.157644 0.608214 10.960219 -3.431709 0.692895 -9.246295 1.907909 1.399583 0.000000 0.000000 0.000000 0.000000 0.000000 0.000000 3.458934 3.666879 -27.366035 -0.445825 -2.194930 -0.107866 0.122857 0.874837 -0.288283 0.000000 0.000000 0.000000 3.898015 3.336451 -27.228963 -0.992920 -2.100243 -0.270693 19.211283 -36.936828 7.569070 0.000000 0.000000 0.000000
-24.080209 82.171097 340.176816 -0.495708 -2.462530 27.702654 0.580132 0.616667 -27.714425 -0.062475 -0.076097 -0.014446 0.614510 -0.198008 -0.642113 0.000000 0.000000 0.000000 0.568378 2.576494 -0.080224 2.079846 4.934242 -0.257389 -7.475025 0.466875 -1.369814 3.796258 -6.789361 1.212320 0.000000 0.000000 0.000000 0.000000 0.000000 0.000000 0.763736 -0.172870 -0.579487 2.129690 0.237933 0.694451 4.886093 -3.353186 -4.293923 -3.453656 1.387222 5.756288 0.000000 0.000000 0.000000 0.000000 0.000000 0.000000 2.453342 3.628975 -27.744400 0.013000 -1.890481 -0.037942 0.296769 0.971189 -0.466017 0.000000 0.000000 0.000000 2.778713 3.282338 -27.567154 -0.441779 -1.733461 -0.234311 27.186073 -45.446738 14.373606 0.000000 0.000000 0.000000
-23.839681 82.062955 340.054679 -0.151922 -2.358850 28.126732 0.360705 0.606824 -28.121893 -0.092173 -0.119589 -0.009532 0.337281 -0.140086 -0.613635 0.000000 0.000000 0.000000 0.340514 2.912536 -0.135327 1.974155 4.291199 -0.162532 -8.228201 1.361721 -1.559716 4.474285 -6.910675 1.513279 0.000000 0.000000 0.000000 0.000000 0.000000 0.000000 -0.117824 0.785854 -0.184785 2.198467 -0.355220 0.484045 2.841466 -4.141604 -7.479338 -1.104567 2.301377 10.180625 0.000000 0.000000 0.000000 0.000000 0.000000 0.000000 1.728308 3.643222 -28.181949 0.347641 -1.668253 0.011544 0.764857 0.859687 -0.870430 0.000000 0.000000 0.000000 1.902668 3.253685 -27.978499 0.004960 -1.407152 -0.203273 28.321819 -46.242270 15.753344 0.000000 0.000000 0.000000
